<?xml version="1.0" encoding="UTF-8" standalone="no"?>
<svg
   version="1.0"
   width="649.000000pt"
   height="469.000000pt"
   viewBox="0 0 649.000000 469.000000"
   preserveAspectRatio="xMidYMid meet"
   id="svg65"
   sodipodi:docname="Angled-shaped-Island.svg"
   inkscape:export-filename="angled-shape-island.svg"
   inkscape:export-xdpi="96"
   inkscape:export-ydpi="96"
   inkscape:version="1.4.2 (ebf0e940, 2025-05-08)"
   xmlns:inkscape="http://www.inkscape.org/namespaces/inkscape"
   xmlns:sodipodi="http://sodipodi.sourceforge.net/DTD/sodipodi-0.dtd"
   xmlns="http://www.w3.org/2000/svg"
   xmlns:svg="http://www.w3.org/2000/svg">
  <defs
     id="defs65" />
  <sodipodi:namedview
     id="namedview65"
     pagecolor="#ffffff"
     bordercolor="#000000"
     borderopacity="0.25"
     inkscape:showpageshadow="2"
     inkscape:pageopacity="0.0"
     inkscape:pagecheckerboard="0"
     inkscape:deskcolor="#d1d1d1"
     inkscape:document-units="pt"
     inkscape:zoom="0.66524521"
     inkscape:cx="360.01762"
     inkscape:cy="259.30288"
     inkscape:window-width="1280"
     inkscape:window-height="718"
     inkscape:window-x="0"
     inkscape:window-y="25"
     inkscape:window-maximized="0"
     inkscape:current-layer="svg65"
     showgrid="false" />
  <g
     id="highlight_label_angled_width_b"
     style="fill:none;stroke-width:1.76623;stroke-dasharray:none"
     transform="matrix(0.81860932,-0.81437745,0.22278338,0.22312235,94.055258,228.92254)">
    <line
       x1="0.93758613"
       y1="-6.3914843"
       x2="205.99782"
       y2="-6.6133366"
       stroke="#ffffff"
       id="line1"
       style="stroke:#000000;stroke-width:1.76674;stroke-dasharray:none;stroke-opacity:1" />
    <line
       x1="206.79059"
       y1="3.7248435"
       x2="206.79083"
       y2="-15.542672"
       stroke="#ffffff"
       id="line2"
       style="stroke:#000000;stroke-width:1.70831;stroke-dasharray:none;stroke-opacity:1" />
    <line
       x1="0.16140005"
       y1="2.9266877"
       x2="0.16164419"
       y2="-16.340828"
       stroke="#ffffff"
       id="line2-1"
       style="fill:none;stroke:#000000;stroke-width:1.70831;stroke-dasharray:none;stroke-opacity:1" />
  </g>
  <g
     id="highlight_label_angled_depth_b"
     style="fill:none;stroke-width:1.76623;stroke-dasharray:none"
     transform="matrix(0.52150179,-0.0017429,0.00310184,0.31661933,97.096898,400.62258)">
    <line
       x1="0.93758613"
       y1="-6.3914843"
       x2="205.99782"
       y2="-6.6133366"
       stroke="#ffffff"
       id="line1-62-3"
       style="stroke:#000000;stroke-width:1.76674;stroke-dasharray:none;stroke-opacity:1" />
    <line
       x1="206.79059"
       y1="3.7248435"
       x2="206.79083"
       y2="-15.542672"
       stroke="#ffffff"
       id="line2-8-9"
       style="stroke:#000000;stroke-width:1.70831;stroke-dasharray:none;stroke-opacity:1" />
    <line
       x1="0.16140005"
       y1="2.9266877"
       x2="0.16164419"
       y2="-16.340828"
       stroke="#ffffff"
       id="line2-1-5-0"
       style="fill:none;stroke:#000000;stroke-width:1.70831;stroke-dasharray:none;stroke-opacity:1" />
  </g>
  <g
     id="highlight_label_angled_depth_a"
     style="fill:none;stroke-width:1.76623;stroke-dasharray:none"
     transform="matrix(-0.00224947,-0.5116923,0.31807075,-0.00236123,437.90921,170.3619)">
    <line
       x1="0.93758613"
       y1="-6.3914843"
       x2="205.99782"
       y2="-6.6133366"
       stroke="#ffffff"
       id="line1-1"
       style="stroke:#000000;stroke-width:1.76674;stroke-dasharray:none;stroke-opacity:1" />
    <line
       x1="206.79059"
       y1="3.7248435"
       x2="206.79083"
       y2="-15.542672"
       stroke="#ffffff"
       id="line2-10"
       style="stroke:#000000;stroke-width:1.70831;stroke-dasharray:none;stroke-opacity:1" />
    <line
       x1="0.16140005"
       y1="2.9266877"
       x2="0.16164419"
       y2="-16.340828"
       stroke="#ffffff"
       id="line2-1-1"
       style="fill:none;stroke:#000000;stroke-width:1.70831;stroke-dasharray:none;stroke-opacity:1" />
  </g>
  <g
     id="highlight_label_angled_width_a"
     style="fill:none;stroke-width:1.76623;stroke-dasharray:none"
     transform="matrix(0.74620752,-0.00107391,5.6228955e-4,0.31591277,271.03063,59.343984)">
    <line
       x1="0.93758613"
       y1="-6.3914843"
       x2="205.99782"
       y2="-6.6133366"
       stroke="#ffffff"
       id="line1-6"
       style="stroke:#000000;stroke-width:1.76674;stroke-dasharray:none;stroke-opacity:1" />
    <line
       x1="206.79059"
       y1="3.7248435"
       x2="206.79083"
       y2="-15.542672"
       stroke="#ffffff"
       id="line2-0"
       style="stroke:#000000;stroke-width:1.70831;stroke-dasharray:none;stroke-opacity:1" />
    <line
       x1="0.16140005"
       y1="2.9266877"
       x2="0.16164419"
       y2="-16.340828"
       stroke="#ffffff"
       id="line2-1-0"
       style="fill:none;stroke:#000000;stroke-width:1.70831;stroke-dasharray:none;stroke-opacity:1" />
  </g>
  <g
     id="highlight_label_angled_width_a-9"
     style="fill:none;stroke-width:1.76623;stroke-dasharray:none"
     transform="matrix(0.30109019,0.32022879,-0.11016756,0.15684676,193.48506,148.53)">
    <line
       x1="0.67146212"
       y1="-7.1188068"
       x2="205.73169"
       y2="-7.3406591"
       stroke="#ffffff"
       id="line1-6-3"
       style="stroke:#000000;stroke-width:3.74025;stroke-dasharray:none;stroke-opacity:1" />
    <line
       x1="206.29344"
       y1="3.8922813"
       x2="207.26767"
       y2="-17.574648"
       stroke="#ffffff"
       id="line2-0-8"
       style="stroke:#000000;stroke-width:1.92214;stroke-dasharray:none;stroke-opacity:1" />
    <line
       x1="-0.68850493"
       y1="5.6340833"
       x2="0.84240979"
       y2="-16.796907"
       stroke="#ffffff"
       id="line2-1-0-0"
       style="fill:none;stroke:#000000;stroke-width:2.00975;stroke-dasharray:none;stroke-opacity:1" />
  </g>
  <g
     id="highlight_label_angled_width_c"
     style="fill:none;stroke-width:1.76623;stroke-dasharray:none"
     transform="matrix(0.00219487,-0.72805242,0.31615982,-0.00262159,93.954327,389.31063)">
    <line
       x1="0.93758613"
       y1="-6.3914843"
       x2="205.99782"
       y2="-6.6133366"
       stroke="#ffffff"
       id="line1-62"
       style="stroke:#000000;stroke-width:1.76674;stroke-dasharray:none;stroke-opacity:1" />
    <line
       x1="206.79059"
       y1="3.7248435"
       x2="206.79083"
       y2="-15.542672"
       stroke="#ffffff"
       id="line2-8"
       style="stroke:#000000;stroke-width:1.70831;stroke-dasharray:none;stroke-opacity:1" />
    <line
       x1="0.16140005"
       y1="2.9266877"
       x2="0.16164419"
       y2="-16.340828"
       stroke="#ffffff"
       id="line2-1-5"
       style="fill:none;stroke:#000000;stroke-width:1.70831;stroke-dasharray:none;stroke-opacity:1" />
  </g>
  <g
     transform="matrix(0.07920023,0,0,-0.0793009,76.284552,415.1571)"
     fill="#000000"
     stroke="none"
     id="g65">
    <path
       d="m 2435,4410 c -22,-11 -47,-24 -55,-29 -8,-5 -27,-14 -41,-21 -15,-7 -483,-469 -1042,-1028 C 395,2428 280,2310 271,2273 c -8,-29 -11,-316 -9,-966 l 3,-923 27,-41 c 50,-75 38,-74 670,-71 544,3 557,3 584,24 15,11 37,33 48,48 21,27 21,38 24,694 l 2,667 682,682 682,682 686,3 687,3 37,29 c 68,51 66,35 66,647 0,613 2,594 -68,647 l -35,27 -941,2 c -918,3 -942,2 -981,-17 z m 1916,-89 29,-29 v -532 c 0,-568 0,-573 -49,-600 -13,-6 -240,-10 -660,-10 h -641 l -6,28 c -6,31 -88,230 -181,444 -36,81 -61,153 -57,159 4,8 3,9 -4,5 -7,-4 -12,-2 -12,4 0,7 -14,42 -31,77 -17,36 -32,76 -33,88 0,13 -3,22 -6,20 -3,-2 -28,49 -55,113 -75,180 -95,226 -112,245 -15,16 28,17 886,17 h 903 z m -1892,-46 c 13,-12 48,-91 157,-350 30,-71 70,-165 89,-208 19,-43 31,-85 28,-94 -4,-10 -2,-14 4,-10 9,6 46,-69 93,-192 11,-30 26,-63 33,-75 20,-36 36,-89 30,-99 -4,-6 -1,-7 7,-2 9,6 10,2 5,-15 -4,-14 -3,-20 3,-16 5,3 13,-1 16,-10 20,-53 27,-46 -671,-746 -373,-374 -689,-684 -702,-689 -25,-10 -77,7 -215,71 -35,17 -67,30 -70,30 -3,0 -29,11 -58,24 -29,13 -139,60 -243,104 -105,44 -215,91 -245,105 -30,13 -104,44 -164,68 -117,47 -156,77 -156,118 0,21 185,211 994,1020 949,949 995,993 1022,987 16,-4 35,-13 43,-21 z M 520,2086 c 25,-10 68,-29 97,-42 28,-13 55,-24 58,-24 3,0 27,-10 53,-21 75,-34 124,-55 162,-69 19,-7 62,-25 95,-41 33,-15 89,-39 125,-54 36,-15 79,-33 95,-40 151,-67 269,-115 299,-120 l 36,-7 v -618 c 0,-413 -4,-627 -11,-648 -7,-20 -21,-34 -41,-41 -21,-7 -209,-11 -558,-11 H 403 l -25,25 c -15,14 -28,42 -32,65 -7,47 -8,1693 0,1713 3,10 19,6 67,-17 34,-17 82,-39 107,-50 z"
       id="path9" />
    <path
       d="m 1946,3638 c -37,-21 -887,-879 -897,-904 -23,-62 -9,-81 230,-320 329,-331 325,-327 369,-329 23,-2 47,4 63,16 36,25 878,868 890,890 12,24 11,66 -2,92 -20,37 -534,545 -563,557 -35,13 -66,12 -90,-2 z m 290,-317 c 132,-131 249,-250 262,-263 l 22,-24 -427,-428 c -236,-235 -432,-428 -436,-429 -12,-3 -517,505 -517,520 0,11 843,863 854,863 2,0 111,-108 242,-239 z"
       id="path10"
       style="opacity:0.28918322" />
    <path
       d="m 3450,2048 c -33,-17 -51,-35 -67,-68 l -23,-44 v -746 c 0,-705 1,-747 19,-786 12,-25 33,-50 57,-65 l 39,-24 h 1275 c 1262,0 1275,0 1310,20 21,12 44,39 58,65 l 22,44 v 746 746 l -22,44 c -17,33 -35,51 -68,68 l -44,22 H 4750 3494 Z m 2566,-76 c 12,-9 27,-27 33,-39 8,-15 11,-233 11,-750 0,-840 9,-767 -100,-783 -87,-13 -2421,-13 -2453,-1 -14,6 -35,20 -46,32 -21,23 -21,25 -21,758 0,682 2,738 18,757 9,12 26,26 37,32 14,8 377,11 1260,11 1160,1 1241,-1 1261,-17 z"
       id="path38" />
    <path
       d="m 3989,1841 -29,-29 V 1380 948 l 29,-29 29,-29 h 716 715 l 28,24 28,24 5,419 c 3,230 4,428 2,440 -2,12 -15,33 -29,47 l -26,26 h -719 -720 z m 1435,-77 c 8,-20 8,-748 0,-768 -6,-14 -76,-16 -690,-16 h -683 l -3,388 c -2,213 -1,393 1,400 2,9 148,12 686,12 613,0 683,-2 689,-16 z"
       id="path39" />
  </g>
  <text
     xml:space="preserve"
     style="font-size:15.8501px;text-align:start;writing-mode:lr-tb;direction:ltr;text-anchor:start;fill:#000000;stroke-width:0.594379"
     x="-19.601429"
     y="220.93634"
     id="label_angled_width_b"
     transform="matrix(0.68923308,-0.72458294,0.72366305,0.69010921,0,0)"><tspan
       sodipodi:role="line"
       id="tspan65"
       style="stroke-width:0.594379"
       x="-19.601429"
       y="220.93634">Width B</tspan></text>
  <text
     xml:space="preserve"
     style="font-size:15.8501px;text-align:start;writing-mode:lr-tb;direction:ltr;text-anchor:start;fill:#000000;stroke-width:0.594379"
     x="27.842682"
     y="292.96249"
     id="label_angled_depth_c"
     transform="matrix(0.68923308,-0.72458294,0.72366305,0.69010921,0,0)"><tspan
       sodipodi:role="line"
       id="tspan65-8"
       style="stroke-width:0.594379"
       x="27.842682"
       y="292.96249">Depth C</tspan></text>
  <text
     xml:space="preserve"
     style="font-size:15.8501px;text-align:start;writing-mode:lr-tb;direction:ltr;text-anchor:start;fill:#000000;stroke-width:0.594379"
     x="320.1077"
     y="50.322632"
     id="label_angled_width_a"
     transform="scale(0.99936501,1.0006354)"><tspan
       sodipodi:role="line"
       id="tspan66"
       style="stroke-width:0.594379"
       x="320.1077"
       y="50.322632">Width A</tspan></text>
  <text
     xml:space="preserve"
     style="font-size:15.8501px;text-align:start;writing-mode:lr-tb;direction:ltr;text-anchor:start;fill:#000000;stroke-width:0.594379"
     x="-348.96262"
     y="82.634659"
     id="label_angled_width_c"
     transform="matrix(-0.00924021,-1.0005926,0.99932232,-0.00925195,0,0)"><tspan
       sodipodi:role="line"
       id="tspan67"
       style="stroke-width:0.594379"
       x="-348.96262"
       y="82.634659">Width C</tspan></text>
  <text
     xml:space="preserve"
     style="font-size:15.8501px;text-align:start;writing-mode:lr-tb;direction:ltr;text-anchor:start;fill:#000000;stroke-width:0.594379"
     x="77.240509"
     y="-443.59525"
     id="label_angled_depth_a"
     transform="matrix(-0.01650916,1.0004988,-0.99922867,-0.01653016,0,0)"><tspan
       sodipodi:role="line"
       id="tspan68"
       style="stroke-width:0.594379"
       x="77.240509"
       y="-443.59525">Depth A</tspan></text>
  <text
     xml:space="preserve"
     style="font-size:15.8501px;text-align:start;writing-mode:lr-tb;direction:ltr;text-anchor:start;fill:#000000;stroke-width:0.594379"
     x="117.65743"
     y="414.00854"
     id="label_angled_depth_b"
     transform="scale(0.99936501,1.0006354)"><tspan
       sodipodi:role="line"
       id="tspan69"
       style="stroke-width:0.594379"
       x="117.65743"
       y="414.00854">Depth B</tspan></text>
  <text
     xml:space="preserve"
     style="font-size:15.8501px;text-align:start;writing-mode:lr-tb;direction:ltr;text-anchor:start;fill:#000000;stroke-width:0.594379"
     x="298.57208"
     y="-567.45599"
     id="label_sink_depth_a"
     transform="matrix(0.01933457,1.000448,-0.99917805,0.01935916,0,0)"><tspan
       sodipodi:role="line"
       id="tspan70"
       style="stroke-width:0.594379"
       x="298.57208"
       y="-567.45599">Depth A</tspan></text>
  <g
     id="g2"
     transform="matrix(0.81860934,-0.81437746,0.22278338,0.22312235,94.055261,228.92254)"
     style="fill:none;stroke-width:1.76623;stroke-dasharray:none" />
  <g
     id="highlight_label_sink_depth_a"
     style="fill:none;stroke-width:1.76623;stroke-dasharray:none"
     transform="matrix(0.00219558,-0.68206076,0.31626234,-0.00245598,569.27058,391.37215)">
    <line
       x1="0.93758613"
       y1="-6.3914843"
       x2="205.99782"
       y2="-6.6133366"
       stroke="#ffffff"
       id="line1-62-36"
       style="stroke:#000000;stroke-width:1.76674;stroke-dasharray:none;stroke-opacity:1" />
    <line
       x1="206.79059"
       y1="3.7248435"
       x2="206.79083"
       y2="-15.542672"
       stroke="#ffffff"
       id="line2-8-3"
       style="stroke:#000000;stroke-width:1.70831;stroke-dasharray:none;stroke-opacity:1" />
    <line
       x1="0.16140005"
       y1="2.9266877"
       x2="0.16164419"
       y2="-16.340828"
       stroke="#ffffff"
       id="line2-1-5-08"
       style="fill:none;stroke:#000000;stroke-width:1.70831;stroke-dasharray:none;stroke-opacity:1" />
  </g>
  <text
     xml:space="preserve"
     style="font-size:15.8501px;text-align:start;writing-mode:lr-tb;direction:ltr;text-anchor:start;fill:#000000;stroke-width:0.594379"
     x="428.23981"
     y="238.248"
     id="label_sink_width_a"
     transform="scale(0.99936501,1.0006354)"><tspan
       sodipodi:role="line"
       id="tspan71"
       style="stroke-width:0.594379"
       x="428.23981"
       y="238.248">Width A</tspan></text>
  <g
     id="highlight_label_sink_width_a"
     style="fill:none;stroke-width:1.76623;stroke-dasharray:none"
     transform="matrix(1.0607154,2.7274775e-4,0.00677222,0.31517698,344.73092,246.3661)">
    <line
       x1="0.93758613"
       y1="-6.3914843"
       x2="205.99782"
       y2="-6.6133366"
       stroke="#ffffff"
       id="line1-62-4"
       style="stroke:#000000;stroke-width:1.76674;stroke-dasharray:none;stroke-opacity:1" />
    <line
       x1="206.79059"
       y1="3.7248435"
       x2="206.79083"
       y2="-15.542672"
       stroke="#ffffff"
       id="line2-8-6"
       style="stroke:#000000;stroke-width:1.70831;stroke-dasharray:none;stroke-opacity:1" />
    <line
       x1="0.16140005"
       y1="2.9266877"
       x2="0.16164419"
       y2="-16.340828"
       stroke="#ffffff"
       id="line2-1-5-4"
       style="fill:none;stroke:#000000;stroke-width:1.70831;stroke-dasharray:none;stroke-opacity:1" />
  </g>
</svg>
